<svg width="382" height="198" viewBox="0 0 382 198" fill="none" xmlns="http://www.w3.org/2000/svg">
<path d="M36.4301 93.3138L0.915118 93.1978V3.94611H37.4746L37.0104 24.0248L35.9658 36.9077H37.0104L46.8757 3.94611H84.4798L65.3295 44.7999L86.5689 93.3138H45.8311L37.0104 60.3522H35.9658L36.4301 93.3138Z" fill="#F0F0F0"/>
<path d="M81.5845 27.8549L88.084 7.3119C90.0958 7.77615 92.0301 8.39515 93.8871 9.1689C95.8215 9.94264 97.6398 10.8325 99.342 11.8383C99.4194 9.82658 99.3807 7.81484 99.226 5.8031C99.1486 3.79136 98.9165 1.85699 98.5296 0H120.233C120.388 2.01174 120.388 4.02348 120.233 6.03522C120.078 8.04696 119.769 9.94265 119.305 11.7223C123.483 10.639 127.197 9.1689 130.447 7.3119L137.062 27.9709C135.283 28.7447 133.426 29.3637 131.491 29.8279C129.557 30.2148 127.661 30.5243 125.804 30.7564C126.887 32.4587 128.087 34.0835 129.402 35.631C130.717 37.1785 132.033 38.5713 133.348 39.8093L115.939 52.5761C114.546 51.0286 113.308 49.365 112.225 47.5854C111.219 45.7284 110.329 43.9488 109.555 42.2466C108.24 43.8714 107.002 45.5737 105.842 47.3533C104.758 49.0555 103.791 50.7965 102.94 52.5761L85.5307 39.9253C86.6139 38.1457 87.7745 36.5208 89.0125 35.0507C90.3279 33.5032 91.7206 32.1105 93.1908 30.8725C91.2564 30.0987 89.2833 29.4411 87.2716 28.8994C85.3372 28.3578 83.4415 28.0096 81.5845 27.8549Z" fill="#F0F0F0"/>
<path d="M177.905 3.94611V57.7989H213.42V93.3138H141.346V3.94611H177.905Z" fill="#F0F0F0"/>
<path d="M254.864 3.94611V57.7989H290.379V93.3138H218.305V3.94611H254.864Z" fill="#F0F0F0"/>
<path d="M83.5646 106.709V141.18H61.1647V196.077H22.516V141.18H0V106.709H83.5646Z" fill="black"/>
<path d="M124.761 196.193L88.2017 196.077V106.709H124.761V196.193Z" fill="black"/>
<path d="M215.436 131.315V134.796L178.876 138.975V136.885C178.876 134.1 177.483 132.707 174.698 132.707C171.912 132.707 170.52 134.1 170.52 136.885V165.437C170.52 168.222 171.912 169.615 174.698 169.615C177.483 169.615 178.876 168.222 178.876 165.437V161.839H174.698V142.108H215.436V170.776C215.436 179.287 211.76 185.941 204.41 190.738C197.059 195.535 186.807 197.934 173.653 197.934C161.505 197.934 151.64 195.574 144.057 190.854C136.552 186.057 132.142 179.442 130.826 171.008C130.517 168.841 130.246 166.017 130.014 162.535C129.859 159.053 129.782 155.185 129.782 150.929C129.782 146.906 129.859 143.23 130.014 139.903C130.246 136.499 130.517 133.791 130.826 131.779C132.142 123.268 136.591 116.652 144.173 111.932C151.756 107.212 161.583 104.852 173.653 104.852C186.497 104.852 196.595 107.212 203.945 111.932C211.296 116.575 215.126 123.035 215.436 131.315Z" fill="black"/>
<path d="M256.918 161.026V165.785H292.433V196.077H220.358V106.709H290.344V132.823H256.918V137.582H287.21V161.026H256.918Z" fill="black"/>
<path d="M333.423 196.077H296.864V106.709H350.02C354.972 106.709 359.499 107.599 363.6 109.379C367.778 111.158 371.105 114.021 373.581 117.967C376.057 121.913 377.295 127.175 377.295 133.752C377.295 135.609 377.14 137.621 376.831 139.787C376.598 141.954 376.018 144.12 375.09 146.287C374.161 148.376 372.73 150.271 370.795 151.974C368.938 153.598 366.385 154.875 363.135 155.804L381.473 196.077H340.735L334.468 172.168H333.423V196.077ZM341.432 135.261H330.29V141.528H341.78C342.399 141.528 343.057 141.335 343.753 140.948C344.527 140.561 344.914 139.748 344.914 138.51C344.914 137.195 344.488 136.344 343.637 135.957C342.786 135.493 342.051 135.261 341.432 135.261Z" fill="black"/>
<path d="M316.496 85.9094L317.492 97.4327C316.354 97.654 315.247 97.8121 314.172 97.9069C313.098 98.0334 312.07 98.0966 311.09 98.0966C308.846 98.0966 306.854 97.7647 305.115 97.1008C303.376 96.4053 302.017 95.1881 301.037 93.4494C300.057 91.679 299.567 89.1973 299.567 86.0043V78.1799H297.006V67.937H299.662L300.42 64.0959L313.224 62.8155V67.937H316.638V78.1799H313.224V82.9219C313.224 84.0917 313.445 84.8978 313.888 85.3404C314.331 85.7514 314.947 85.9569 315.737 85.9569C315.832 85.9569 315.943 85.9569 316.069 85.9569C316.227 85.9569 316.37 85.9411 316.496 85.9094Z" fill="#F0F0F0"/>
<path d="M341.349 67.1782C343.246 67.1782 344.78 67.4944 345.949 68.1266C347.119 68.7273 348.004 69.5651 348.605 70.6399C349.206 71.7148 349.617 72.9477 349.838 74.3388C350.059 75.6982 350.186 77.1366 350.217 78.6541V97.3379H336.133V79.7447C336.133 79.6499 336.07 79.4128 335.943 79.0334C335.849 78.6541 335.485 78.4644 334.853 78.4644C334.221 78.4644 333.841 78.6541 333.715 79.0334C333.62 79.4128 333.572 79.6499 333.572 79.7447V97.3379H319.156L318.967 59.2115H333.478V73.011H333.904C334.126 71.0509 334.948 69.5967 336.37 68.6483C337.825 67.6682 339.484 67.1782 341.349 67.1782Z" fill="#F0F0F0"/>
<path d="M366.494 67.2731C371.046 67.2731 374.666 68.2689 377.353 70.2606C380.041 72.2522 381.447 75.0343 381.574 78.6066V84.0126H365.64V86.6682C365.64 87.5218 366.067 87.9485 366.921 87.9485C367.774 87.9485 368.201 87.5218 368.201 86.6682V85.4352L381.432 86.1466V87.1424C381.432 90.5883 380.12 93.2755 377.496 95.2039C374.872 97.1008 371.204 98.0492 366.494 98.0492C362.321 98.0492 358.986 97.1008 356.488 95.2039C354.022 93.3071 352.521 90.6515 351.983 87.2372C351.888 86.8263 351.809 86.194 351.746 85.3404C351.714 84.4868 351.699 83.491 351.699 82.3529C351.699 81.2464 351.714 80.2664 351.746 79.4128C351.809 78.5276 351.888 77.8795 351.983 77.4685C352.489 74.2755 353.991 71.778 356.488 69.976C358.986 68.1741 362.321 67.2731 366.494 67.2731ZM365.64 78.8912V80.5983H368.201V78.8912C368.201 78.0376 367.774 77.6108 366.921 77.6108C366.067 77.6108 365.64 78.0376 365.64 78.8912Z" fill="#F0F0F0"/>
</svg>
