<svg width="497" height="94" viewBox="0 0 497 94" fill="none" xmlns="http://www.w3.org/2000/svg">
<path d="M36.5595 91.2247H0V1.85699H54.201C59.1529 1.85699 63.6793 2.82417 67.7802 4.75854C71.9584 6.61553 75.2856 9.90396 77.7615 14.6238C80.2375 19.2663 81.4755 25.7271 81.4755 34.0062C81.4755 42.1305 80.1988 48.5913 77.6455 53.3885C75.0921 58.1084 71.7263 61.5129 67.5481 63.602C63.4472 65.6137 58.9982 66.6196 54.201 66.6196H36.5595V91.2247ZM45.6124 31.2207H34.4704V37.488H45.9605C46.5795 37.488 47.2372 37.2946 47.9336 36.9077C48.7073 36.5208 49.0942 35.7084 49.0942 34.4704C49.0942 33.155 48.6687 32.3039 47.8175 31.917C46.9664 31.4528 46.2314 31.2207 45.6124 31.2207Z" fill="#F0F0F0"/>
<path d="M166.03 91.2247H128.426L127.266 80.547H110.785L109.624 91.2247H72.0201L95.0004 1.85699H143.05L166.03 91.2247ZM115.892 34.9347L114.615 46.0766H123.436L122.159 34.9347H115.892Z" fill="#F0F0F0"/>
<path d="M166.942 1.85699H204.546V60.1201C204.546 60.3522 204.662 60.9325 204.894 61.861C205.203 62.7895 206.132 63.2538 207.679 63.2538C209.227 63.2538 210.117 62.7895 210.349 61.861C210.658 60.9325 210.813 60.3522 210.813 60.1201V1.85699H248.417V61.745C248.417 66.0006 247.721 70.0241 246.328 73.8154C244.935 77.5294 242.653 80.8565 239.48 83.7968C236.308 86.6596 232.014 88.9422 226.597 90.6444C221.259 92.2693 214.604 93.0817 206.635 93.0817C199.594 93.0817 193.558 92.2306 188.529 90.5284C183.5 88.8261 179.399 86.5049 176.227 83.5646C173.054 80.6244 170.694 77.2973 169.147 73.5833C167.677 69.8693 166.942 66.0006 166.942 61.9771V1.85699Z" fill="#F0F0F0"/>
<path d="M327.04 41.5502C322.939 39.0742 318.567 37.2559 313.925 36.0953C309.283 34.8573 303.712 34.0062 297.212 33.5419C296.67 33.4645 296.129 33.4258 295.587 33.4258C295.123 33.3485 294.659 33.3098 294.194 33.3098C292.57 33.3098 291.757 33.9675 291.757 35.2828C291.757 36.0566 292.183 36.5982 293.034 36.9077C293.962 37.1398 295.2 37.3333 296.748 37.488C299.765 37.8749 302.938 38.3391 306.265 38.8808C309.592 39.345 312.842 40.0801 316.014 41.0859C319.186 42.0918 322.049 43.5619 324.603 45.4963C327.233 47.4307 329.284 49.984 330.754 53.1564C332.302 56.3288 333.075 60.3136 333.075 65.1108C333.075 70.4496 331.837 74.9374 329.361 78.574C326.885 82.1332 323.519 84.9961 319.264 87.1626C315.086 89.2517 310.288 90.7605 304.872 91.689C299.533 92.6175 294.001 93.0817 288.275 93.0817C281.621 93.1591 275.006 92.7722 268.429 91.9211C261.929 91.1474 256.165 90.1415 251.135 88.9035L254.385 48.0497C256.165 49.365 258.293 50.7965 260.769 52.344C263.245 53.8141 266.61 55.1681 270.866 56.4061C275.122 57.6441 280.731 58.6113 287.695 59.3077C288.082 59.3851 288.43 59.4237 288.74 59.4237C289.126 59.4237 289.475 59.4237 289.784 59.4237C290.635 59.4237 291.254 59.3077 291.641 59.0756C292.105 58.8434 292.337 58.3405 292.337 57.5667C292.337 56.7156 291.951 56.174 291.177 55.9419C290.481 55.7098 289.359 55.4776 287.811 55.2455C283.633 54.7813 279.455 54.1236 275.276 53.2725C271.176 52.4213 267.423 51.106 264.018 49.3263C260.614 47.5467 257.867 45.0707 255.778 41.8984C253.766 38.726 252.76 34.5865 252.76 29.4797C252.76 22.2065 254.463 16.4421 257.867 12.1865C261.349 7.85352 266.03 4.75854 271.911 2.90155C277.791 0.967182 284.368 0 291.641 0C297.754 0 304.137 0.580309 310.791 1.74093C317.446 2.82417 324.022 4.33298 330.522 6.26734L327.04 41.5502Z" fill="#F0F0F0"/>
<path d="M373.525 56.174V60.9325H409.04V91.2247H336.965V1.85699H406.951V27.9709H373.525V32.7295H403.817V56.174H373.525Z" fill="#F0F0F0"/>
<path d="M413.471 1.85699H448.986C458.039 1.85699 465.505 2.63073 471.386 4.17823C477.266 5.64835 481.909 7.77615 485.313 10.5616C488.795 13.3471 491.348 16.7129 492.973 20.659C494.598 24.6051 495.604 29.0542 495.991 34.0062C496.455 38.8808 496.649 44.1422 496.571 49.7906C496.494 54.1236 496.3 58.3405 495.991 62.4413C495.681 66.5422 494.792 70.3336 493.321 73.8154C491.929 77.2973 489.569 80.3536 486.242 82.9843C482.915 85.6151 478.233 87.6655 472.198 89.1356C466.163 90.5284 458.348 91.2247 448.754 91.2247H413.471V1.85699ZM457.342 59.1916V34.1222C457.342 33.8127 457.188 33.2324 456.878 32.3813C456.646 31.4528 455.756 30.9885 454.209 30.9885C452.661 30.9885 451.733 31.4528 451.423 32.3813C451.191 33.2324 451.075 33.8127 451.075 34.1222V59.1916C451.075 59.4237 451.191 60.004 451.423 60.9325C451.733 61.861 452.661 62.3253 454.209 62.3253C455.756 62.3253 456.646 61.861 456.878 60.9325C457.188 60.004 457.342 59.4237 457.342 59.1916Z" fill="#F0F0F0"/>
</svg>
