<svg width="601" height="94" viewBox="0 0 601 94" fill="none" xmlns="http://www.w3.org/2000/svg">
<path d="M36.5597 91.2247H0.000148401V1.857H54.2011C59.1531 1.857 63.6795 2.82418 67.7804 4.75854C71.9586 6.61554 75.2857 9.90396 77.7617 14.6238C80.2377 19.2663 81.4757 25.7271 81.4757 34.0062C81.4757 42.1305 80.199 48.5913 77.6456 53.3885C75.0923 58.1084 71.7265 61.5129 67.5482 63.602C63.4474 65.6137 58.9983 66.6196 54.2011 66.6196H36.5597V91.2247ZM45.6125 31.2207H34.4706V37.488H45.9607C46.5797 37.488 47.2374 37.2946 47.9338 36.9077C48.7075 36.5208 49.0944 35.7084 49.0944 34.4704C49.0944 33.155 48.6688 32.3039 47.8177 31.9171C46.9666 31.4528 46.2315 31.2207 45.6125 31.2207ZM166.03 91.2247H128.426L127.266 80.547H110.785L109.624 91.2247H72.0202L95.0005 1.857H143.05L166.03 91.2247ZM115.892 34.9347L114.615 46.0766H123.436L122.159 34.9347H115.892ZM166.942 1.857H204.546V60.1201C204.546 60.3522 204.662 60.9326 204.894 61.861C205.203 62.7895 206.132 63.2538 207.679 63.2538C209.227 63.2538 210.117 62.7895 210.349 61.861C210.658 60.9326 210.813 60.3522 210.813 60.1201V1.857H248.417V61.745C248.417 66.0006 247.721 70.0241 246.328 73.8154C244.935 77.5294 242.653 80.8565 239.48 83.7968C236.308 86.6596 232.014 88.9422 226.598 90.6444C221.259 92.2693 214.605 93.0817 206.635 93.0817C199.594 93.0817 193.559 92.2306 188.529 90.5284C183.5 88.8261 179.399 86.5049 176.227 83.5646C173.054 80.6244 170.694 77.2973 169.147 73.5833C167.677 69.8693 166.942 66.0006 166.942 61.9771V1.857ZM327.04 41.5502C322.939 39.0742 318.568 37.2559 313.925 36.0953C309.283 34.8573 303.712 34.0062 297.212 33.5419C296.671 33.4645 296.129 33.4259 295.587 33.4259C295.123 33.3485 294.659 33.3098 294.195 33.3098C292.57 33.3098 291.757 33.9675 291.757 35.2829C291.757 36.0566 292.183 36.5982 293.034 36.9077C293.963 37.1398 295.201 37.3333 296.748 37.488C299.766 37.8749 302.938 38.3391 306.265 38.8808C309.592 39.345 312.842 40.0801 316.014 41.086C319.187 42.0918 322.05 43.5619 324.603 45.4963C327.234 47.4307 329.284 49.984 330.754 53.1564C332.302 56.3288 333.075 60.3136 333.075 65.1108C333.075 70.4496 331.837 74.9374 329.361 78.574C326.885 82.1332 323.52 84.9961 319.264 87.1626C315.086 89.2517 310.289 90.7605 304.872 91.689C299.533 92.6175 294.001 93.0817 288.275 93.0817C281.621 93.1591 275.006 92.7722 268.429 91.9211C261.929 91.1474 256.165 90.1415 251.136 88.9035L254.385 48.0497C256.165 49.365 258.293 50.7965 260.769 52.344C263.245 53.8141 266.611 55.1681 270.866 56.4061C275.122 57.6441 280.731 58.6113 287.695 59.3077C288.082 59.3851 288.43 59.4237 288.74 59.4237C289.127 59.4237 289.475 59.4237 289.784 59.4237C290.635 59.4237 291.254 59.3077 291.641 59.0756C292.106 58.8434 292.338 58.3405 292.338 57.5668C292.338 56.7156 291.951 56.174 291.177 55.9419C290.481 55.7098 289.359 55.4776 287.811 55.2455C283.633 54.7813 279.455 54.1236 275.277 53.2725C271.176 52.4213 267.423 51.106 264.019 49.3263C260.614 47.5467 257.867 45.0707 255.778 41.8984C253.766 38.726 252.761 34.5865 252.761 29.4798C252.761 22.2065 254.463 16.4421 257.867 12.1865C261.349 7.85353 266.03 4.75854 271.911 2.90155C277.791 0.967189 284.368 6.67489e-06 291.641 6.67489e-06C297.754 6.67489e-06 304.137 0.580316 310.792 1.74093C317.446 2.82418 324.023 4.33298 330.522 6.26735L327.04 41.5502ZM424.676 91.2247H387.072L385.912 80.547H369.431L368.27 91.2247H330.666L353.646 1.857H401.696L424.676 91.2247ZM374.538 34.9347L373.261 46.0766H382.082L380.805 34.9347H374.538ZM428.319 1.857H463.834C472.887 1.857 480.353 2.63074 486.234 4.17823C492.114 5.64836 496.757 7.77616 500.161 10.5616C503.643 13.3471 506.196 16.7129 507.821 20.659C509.446 24.6051 510.452 29.0542 510.839 34.0062C511.303 38.8808 511.497 44.1422 511.419 49.7906C511.342 54.1236 511.148 58.3405 510.839 62.4414C510.529 66.5422 509.64 70.3336 508.169 73.8154C506.777 77.2973 504.417 80.3536 501.09 82.9843C497.763 85.6151 493.081 87.6655 487.046 89.1356C481.011 90.5284 473.196 91.2247 463.602 91.2247H428.319V1.857ZM472.19 59.1916V34.1222C472.19 33.8127 472.035 33.2324 471.726 32.3813C471.494 31.4528 470.604 30.9886 469.057 30.9886C467.509 30.9886 466.581 31.4528 466.271 32.3813C466.039 33.2324 465.923 33.8127 465.923 34.1222V59.1916C465.923 59.4237 466.039 60.0041 466.271 60.9326C466.581 61.861 467.509 62.3253 469.057 62.3253C470.604 62.3253 471.494 61.861 471.726 60.9326C472.035 60.0041 472.19 59.4237 472.19 59.1916ZM599.958 67.0838C598.72 75.2082 594.426 81.5916 587.075 86.2341C579.725 90.7992 570.092 93.0817 558.176 93.0817C546.26 93.0817 536.627 90.7992 529.276 86.2341C522.003 81.669 517.709 75.3629 516.394 67.316C516.084 65.1495 515.813 62.2479 515.581 58.6113C515.426 54.8973 515.349 50.9125 515.349 46.6569C515.349 42.5561 515.426 38.7647 515.581 35.2829C515.813 31.7236 516.084 28.9381 516.394 26.9264C517.709 18.4152 522.042 11.7996 529.392 7.07979C536.743 2.35993 546.337 6.67489e-06 558.176 6.67489e-06C570.092 6.67489e-06 579.725 2.35993 587.075 7.07979C594.426 11.7223 598.72 18.1831 599.958 26.4621C600.268 28.4739 600.5 31.2594 600.655 34.8186C600.887 38.3005 601.003 42.1305 601.003 46.3087C601.003 50.7191 600.887 54.7426 600.655 58.3792C600.5 62.0158 600.268 64.9173 599.958 67.0838ZM561.309 61.745V31.3367C561.309 29.2476 560.265 28.2031 558.176 28.2031C556.087 28.2031 555.042 29.2476 555.042 31.3367V61.745C555.042 63.8341 556.087 64.8787 558.176 64.8787C560.265 64.8787 561.309 63.8341 561.309 61.745Z" fill="#F0F0F0"/>
</svg>
