<svg width="358" height="218" viewBox="0 0 358 218" fill="none" xmlns="http://www.w3.org/2000/svg">
<path d="M69.9545 135H20.6282L1.36186 45.6323H40.1266L44.7691 105.056H45.8136L50.34 45.6323H89.1047L69.9545 135ZM171.342 110.859C170.104 118.983 165.81 125.367 158.459 130.009C151.108 134.574 141.475 136.857 129.56 136.857C117.644 136.857 108.011 134.574 100.66 130.009C93.3869 125.444 89.0926 119.138 87.7773 111.091C87.4678 108.925 87.197 106.023 86.9648 102.387C86.8101 98.6726 86.7327 94.6878 86.7327 90.4322C86.7327 86.3313 86.8101 82.54 86.9648 79.0581C87.197 75.4989 87.4678 72.7134 87.7773 70.7017C89.0926 62.1904 93.4256 55.5749 100.776 50.8551C108.127 46.1352 117.721 43.7753 129.56 43.7753C141.475 43.7753 151.108 46.1352 158.459 50.8551C165.81 55.4975 170.104 61.9583 171.342 70.2374C171.651 72.2491 171.884 75.0346 172.038 78.5939C172.27 82.0757 172.386 85.9058 172.386 90.084C172.386 94.4944 172.27 98.5178 172.038 102.154C171.884 105.791 171.651 108.693 171.342 110.859ZM132.693 105.52V75.112C132.693 73.0229 131.649 71.9783 129.56 71.9783C127.47 71.9783 126.426 73.0229 126.426 75.112V105.52C126.426 107.609 127.47 108.654 129.56 108.654C131.649 108.654 132.693 107.609 132.693 105.52ZM224.082 91.5928L262.034 93.798V109.815C262.034 118.171 258.243 124.709 250.66 129.429C243.155 134.149 232.671 136.509 219.208 136.509C211.393 136.509 204.468 135.464 198.432 133.375C192.397 131.286 187.561 128.268 183.925 124.322C180.288 120.299 178.122 115.463 177.425 109.815C177.193 107.725 177 104.979 176.845 101.574C176.69 98.0923 176.613 94.3009 176.613 90.2001C176.613 86.0992 176.69 82.3465 176.845 78.9421C177 75.5376 177.193 72.7908 177.425 70.7017C178.122 64.9759 180.288 60.14 183.925 56.1939C187.561 52.1704 192.397 49.1141 198.432 47.025C204.468 44.8585 211.393 43.7753 219.208 43.7753C228.028 43.7753 235.611 44.8585 241.956 47.025C248.378 49.1915 253.33 52.2865 256.812 56.31C260.293 60.2561 262.034 65.0533 262.034 70.7017V81.2633L224.082 85.3255V75.9244C224.082 73.8353 223.038 72.7908 220.948 72.7908C218.859 72.7908 217.815 73.8353 217.815 75.9244V104.128C217.815 106.217 218.859 107.261 220.948 107.261C223.038 107.261 224.082 106.217 224.082 104.128V91.5928ZM303.522 99.9493V104.708H339.037V135H266.962V45.6323H336.948V71.7462H303.522V76.5048H333.814V99.9493H303.522ZM318.61 19.8665L333.582 40.1774H305.843L302.477 32.2851L298.996 40.1774H271.257L286.229 19.8665H318.61Z" fill="#F0F0F0"/>
<path d="M39.3215 198H18.5114L19.7726 144.048H46.8889L49.8317 162.195H50.4623L53.4052 144.048H80.3112L81.5724 198H60.7623V169.973H60.1317L55.7174 198H44.3664L39.9522 169.272H39.3215V198ZM135.476 183.426C134.729 188.331 132.137 192.184 127.699 194.987C123.261 197.743 117.446 199.121 110.252 199.121C103.058 199.121 97.2428 197.743 92.8051 194.987C88.4142 192.231 85.8217 188.424 85.0276 183.566C84.8408 182.258 84.6773 180.506 84.5372 178.311C84.4437 176.069 84.397 173.663 84.397 171.094C84.397 168.618 84.4437 166.329 84.5372 164.227C84.6773 162.079 84.8408 160.397 85.0276 159.182C85.8217 154.044 88.4376 150.05 92.8752 147.201C97.3128 144.351 103.105 142.927 110.252 142.927C117.446 142.927 123.261 144.351 127.699 147.201C132.137 150.004 134.729 153.904 135.476 158.902C135.663 160.117 135.803 161.798 135.897 163.947C136.037 166.049 136.107 168.361 136.107 170.884C136.107 173.546 136.037 175.975 135.897 178.171C135.803 180.366 135.663 182.118 135.476 183.426ZM112.144 180.203V161.845C112.144 160.584 111.513 159.953 110.252 159.953C108.991 159.953 108.36 160.584 108.36 161.845V180.203C108.36 181.464 108.991 182.095 110.252 182.095C111.513 182.095 112.144 181.464 112.144 180.203ZM161.15 198H139.079V144.048H171.17C174.159 144.048 176.892 144.585 179.368 145.659C181.89 146.734 183.899 148.462 185.394 150.844C186.888 153.227 187.636 156.403 187.636 160.374C187.636 161.495 187.542 162.709 187.356 164.017C187.215 165.325 186.865 166.633 186.305 167.941C185.744 169.202 184.88 170.347 183.712 171.374C182.591 172.355 181.049 173.126 179.088 173.686L190.158 198H165.565L161.781 183.566H161.15V198ZM165.985 161.284H159.258V165.068H166.195C166.569 165.068 166.966 164.951 167.386 164.718C167.853 164.484 168.087 163.994 168.087 163.246C168.087 162.452 167.83 161.938 167.316 161.705C166.802 161.425 166.359 161.284 165.985 161.284ZM213.906 198H191.835V144.048H223.926C226.916 144.048 229.648 144.585 232.124 145.659C234.646 146.734 236.655 148.462 238.15 150.844C239.645 153.227 240.392 156.403 240.392 160.374C240.392 161.495 240.299 162.709 240.112 164.017C239.972 165.325 239.621 166.633 239.061 167.941C238.5 169.202 237.636 170.347 236.468 171.374C235.347 172.355 233.806 173.126 231.844 173.686L242.914 198H218.321L214.537 183.566H213.906V198ZM218.741 161.284H212.015V165.068H218.951C219.325 165.068 219.722 164.951 220.142 164.718C220.609 164.484 220.843 163.994 220.843 163.246C220.843 162.452 220.586 161.938 220.072 161.705C219.558 161.425 219.115 161.284 218.741 161.284ZM266.662 176.84V179.712H288.103V198H244.591V144.048H286.842V159.813H266.662V162.686H284.95V176.84H266.662ZM290.498 144.048H313.2V179.222C313.2 179.362 313.27 179.712 313.41 180.273C313.597 180.833 314.158 181.114 315.092 181.114C316.026 181.114 316.563 180.833 316.703 180.273C316.89 179.712 316.984 179.362 316.984 179.222V144.048H339.686V180.203C339.686 182.772 339.265 185.201 338.424 187.49C337.584 189.732 336.206 191.741 334.29 193.516C332.375 195.244 329.783 196.622 326.513 197.65C323.29 198.631 319.273 199.121 314.461 199.121C310.21 199.121 306.567 198.607 303.531 197.58C300.494 196.552 298.019 195.151 296.104 193.376C294.188 191.6 292.764 189.592 291.829 187.35C290.942 185.108 290.498 182.772 290.498 180.343V144.048Z" fill="black"/>
</svg>
